<svg width="37" height="28" viewBox="0 0 37 28" fill="none" xmlns="http://www.w3.org/2000/svg">
<path fill-rule="evenodd" clip-rule="evenodd" d="M0 27.2227H36.6333V0.580322H0V27.2227ZM4.99545 22.2273H31.6379V5.57577H4.99545V22.2273Z" fill="white"/>
<path fill-rule="evenodd" clip-rule="evenodd" d="M4.99484 9.74095H9.1601V5.57568H4.99484V9.74095Z" fill="white"/>
<path fill-rule="evenodd" clip-rule="evenodd" d="M27.4821 22.2273H31.6379V18.0715H27.4821V22.2273Z" fill="white"/>
<path fill-rule="evenodd" clip-rule="evenodd" d="M18.3158 16.3993C16.9387 16.3993 15.8181 15.2786 15.8181 13.9015C15.8181 12.5245 16.9387 11.4038 18.3158 11.4038C19.6929 11.4038 20.8135 12.5245 20.8135 13.9015C20.8135 15.2786 19.6929 16.3993 18.3158 16.3993Z" fill="white"/>
<path fill-rule="evenodd" clip-rule="evenodd" d="M18.3161 9.66943C15.9786 9.66943 14.084 11.564 14.084 13.9015C14.084 16.239 15.9786 18.1336 18.3161 18.1336C20.6536 18.1336 22.5481 16.239 22.5481 13.9015C22.5481 11.564 20.6536 9.66943 18.3161 9.66943Z" fill="white"/>
</svg>
